<svg width="17" height="17" viewBox="0 0 17 17" fill="none" xmlns="http://www.w3.org/2000/svg">
<path d="M16.0932 13.03L16.0607 0.524692L3.55535 0.492244C3.42506 0.474604 3.29251 0.485163 3.16665 0.523206C3.0408 0.561249 2.92459 0.625889 2.8259 0.712749C2.7272 0.799607 2.64831 0.906659 2.59459 1.02665C2.54086 1.14665 2.51354 1.27679 2.51448 1.40826C2.51542 1.53973 2.54459 1.66947 2.60003 1.78869C2.65547 1.9079 2.73587 2.01382 2.8358 2.09926C2.93573 2.1847 3.05285 2.24767 3.17923 2.28391C3.30561 2.32015 3.43831 2.32882 3.56833 2.30932L12.9392 2.34825L0.524731 14.7628C0.352618 14.9349 0.255926 15.1683 0.255926 15.4117C0.255926 15.6551 0.352618 15.8886 0.524731 16.0607C0.696845 16.2328 0.930282 16.3295 1.17369 16.3295C1.41709 16.3295 1.65053 16.2328 1.82264 16.0607L14.2371 3.64616L14.2761 13.0171C14.2769 13.2606 14.3745 13.4938 14.5473 13.6654C14.7201 13.837 14.9541 13.933 15.1976 13.9321C15.4411 13.9312 15.6744 13.8337 15.846 13.6608C16.0176 13.488 16.1135 13.2541 16.1126 13.0106L16.0932 13.03Z" fill="white"/>
</svg>
