<svg width="333" height="64" viewBox="0 0 333 64" fill="none" xmlns="http://www.w3.org/2000/svg">
<rect y="2" width="330.633" height="59" fill="#D9D9D9"/>
<line y1="-1.5" x2="3.73391" y2="-1.5" transform="matrix(4.37114e-08 1 1 -4.37114e-08 332.89 3)" stroke="black" stroke-width="3"/>
<line y1="-1.5" x2="8.60181" y2="-1.5" transform="matrix(-1 0 0 1 332.89 3)" stroke="black" stroke-width="3"/>
<line x1="1.5" y1="3" x2="1.5" y2="6.73391" stroke="black" stroke-width="3"/>
<line y1="1.5" x2="8.60181" y2="1.5" stroke="black" stroke-width="3"/>
<line y1="-1.5" x2="3.73391" y2="-1.5" transform="matrix(-4.37114e-08 -1 -1 4.37114e-08 0 61)" stroke="black" stroke-width="3"/>
<line y1="-1.5" x2="8.60181" y2="-1.5" transform="matrix(1 0 0 -1 0 61)" stroke="black" stroke-width="3"/>
<line x1="331.39" y1="61" x2="331.39" y2="57.2661" stroke="black" stroke-width="3"/>
<line x1="332.89" y1="62.5" x2="324.288" y2="62.5" stroke="black" stroke-width="3"/>
<path d="M3.825 46V14.95H13.05L25.29 39.835L23.85 40.15V14.95H30.33V46H21.6L8.865 20.08L10.305 19.765V46H3.825ZM40.2205 46V14.95H62.0455V21.25H47.4205V27.37H59.9305V33.31H47.4205V39.7H62.2705V46H40.2205ZM67.21 14.95H74.86L82.06 36.685L89.26 14.95H96.73L85.435 46H78.505L67.21 14.95ZM100.116 21.25V14.95H124.236V21.25H115.776V46H108.576V21.25H100.116ZM130.533 46V40.6H134.583V20.35H130.533V14.95H145.833V20.35H141.783V40.6H145.833V46H130.533ZM154.821 46V14.95H162.021V27.82L171.831 14.95H180.786L169.446 28.405L181.371 46H172.641L164.901 33.85L162.021 37.225V46H154.821Z" fill="#F22828"/>
<path d="M198.237 21.25V14.95H222.357V21.25H213.897V46H206.697V21.25H198.237ZM229.554 46V14.95H251.379V21.25H236.754V27.37H249.264V33.31H236.754V39.7H251.604V46H229.554ZM256.544 46L267.839 14.95H274.769L286.064 46H278.414L275.804 38.17L279.629 39.88H262.799L266.489 38.53L264.014 46H256.544ZM266.894 37.225L264.689 34.165H277.739L275.534 37.225L270.179 21.205H272.249L266.894 37.225ZM292.15 46V14.95H302.005L308.665 32.995H306.415L313.075 14.95H322.93V46H316.045V20.935L317.215 21.16L309.925 39.655H305.155L297.865 21.16L299.035 20.935V46H292.15Z" fill="#1E1E1E"/>
</svg>
